<svg width="45" height="45" viewBox="0 0 45 45" fill="none" xmlns="http://www.w3.org/2000/svg">
<path d="M37.6988 42.3033H7.29972C4.67725 42.3033 2.3595 40.9833 0.962646 38.9811C1.15141 42.3262 3.90736 45 7.29972 45H37.6988C41.0939 45 43.8498 42.3303 44.0372 38.9811C42.6404 40.9833 40.3226 42.3033 37.6988 42.3033Z" fill="#D8DD15"/>
<path d="M37.6988 1.85393H36.7793V1.34831C36.7793 0.604045 36.1766 0 35.431 0C34.6867 0 34.0827 0.604045 34.0827 1.34831V1.85393H31.6058V1.34831C31.6058 0.604045 31.0018 0 30.2575 0C29.5132 0 28.9092 0.604045 28.9092 1.34831V1.85393H26.4323V1.34831C26.4323 0.604045 25.8296 0 25.084 0C24.3398 0 23.7357 0.604045 23.7357 1.34831V1.85393H21.2589V1.34831C21.2589 0.604045 20.6548 0 19.9105 0C19.1663 0 18.5622 0.604045 18.5622 1.34831V1.85393H16.0854V1.34831C16.0854 0.604045 15.4813 0 14.7371 0C13.9928 0 13.3887 0.604045 13.3887 1.34831V1.85393H10.9132V1.34831C10.9132 0.604045 10.3092 0 9.56492 0C8.82065 0 8.21661 0.604045 8.21661 1.34831V1.85393H7.29706C3.7847 1.85393 0.92627 4.71236 0.92627 8.22607V34.5816C0.92627 38.0939 3.7847 40.9551 7.29975 40.9551H37.6988C41.2126 40.9551 44.0737 38.0966 44.0737 34.5816V8.22607C44.0723 4.71236 41.2139 1.85393 37.6988 1.85393ZM34.7595 1.34831C34.7595 0.97618 35.0616 0.674157 35.4337 0.674157C35.8058 0.674157 36.1078 0.97618 36.1078 1.34831V10.0881C36.1078 10.4602 35.8058 10.7622 35.4337 10.7622C35.0616 10.7622 34.7595 10.4602 34.7595 10.0881V1.34831ZM29.586 1.34831C29.586 0.97618 29.8894 0.674157 30.2602 0.674157C30.6323 0.674157 30.9344 0.97618 30.9344 1.34831V10.0881C30.9344 10.4602 30.6323 10.7622 30.2602 10.7622C29.8894 10.7622 29.586 10.4602 29.586 10.0881V1.34831ZM24.4126 1.34831C24.4126 0.97618 24.7146 0.674157 25.0867 0.674157C25.4589 0.674157 25.7609 0.97618 25.7609 1.34831V10.0881C25.7609 10.4602 25.4589 10.7622 25.0867 10.7622C24.7146 10.7622 24.4126 10.4602 24.4126 10.0881V1.34831ZM19.2391 1.34831C19.2391 0.97618 19.5411 0.674157 19.9132 0.674157C20.2854 0.674157 20.5874 0.97618 20.5874 1.34831V10.0881C20.5874 10.4602 20.2854 10.7622 19.9132 10.7622C19.5411 10.7622 19.2391 10.4602 19.2391 10.0881V1.34831ZM14.0656 1.34831C14.0656 0.97618 14.3676 0.674157 14.7398 0.674157C15.1119 0.674157 15.4139 0.97618 15.4139 1.34831V10.0881C15.4139 10.4602 15.1119 10.7622 14.7398 10.7622C14.3676 10.7622 14.0656 10.4602 14.0656 10.0881V1.34831ZM8.89211 1.34831C8.89211 0.97618 9.19413 0.674157 9.56627 0.674157C9.9384 0.674157 10.2404 0.97618 10.2404 1.34831V10.0881C10.2404 10.4602 9.9384 10.7622 9.56627 10.7622C9.19413 10.7622 8.89211 10.4602 8.89211 10.0881V1.34831ZM40.8256 34.5816C40.8256 36.3034 39.4233 37.7056 37.7002 37.7056H7.29975C5.57661 37.7056 4.17436 36.3034 4.17436 34.5816V8.22607C4.17436 6.50292 5.57661 5.10067 7.29975 5.10067H8.2193V8.48899C7.76222 8.87461 7.46425 9.44494 7.46425 10.0894C7.46425 11.249 8.40672 12.1928 9.56762 12.1928C10.7285 12.1928 11.671 11.2503 11.671 10.0894C11.671 9.44494 11.373 8.87595 10.9159 8.48899V5.10067H13.3928V8.48899C12.9357 8.87461 12.6377 9.44494 12.6377 10.0894C12.6377 11.249 13.5802 12.1928 14.7411 12.1928C15.902 12.1928 16.8445 11.2503 16.8445 10.0894C16.8445 9.44494 16.5465 8.87595 16.0894 8.48899V5.10067H18.5663V8.48899C18.1092 8.87461 17.8112 9.44494 17.8112 10.0894C17.8112 11.249 18.7537 12.1928 19.9146 12.1928C21.0755 12.1928 22.018 11.2503 22.018 10.0894C22.018 9.44494 21.72 8.87595 21.2629 8.48899V5.10067H23.7398V8.48899C23.2827 8.87461 22.9847 9.44494 22.9847 10.0894C22.9847 11.249 23.9272 12.1928 25.0881 12.1928C26.249 12.1928 27.1928 11.2503 27.1928 10.0894C27.1928 9.44494 26.8935 8.87595 26.4364 8.48899V5.10067H28.9132V8.48899C28.4562 8.87461 28.1582 9.44494 28.1582 10.0894C28.1582 11.249 29.1006 12.1928 30.2615 12.1928C31.4224 12.1928 32.3649 11.2503 32.3649 10.0894C32.3649 9.44494 32.0669 8.87595 31.6099 8.48899V5.10067H34.0867V8.48899C33.6296 8.87461 33.3317 9.44494 33.3317 10.0894C33.3317 11.249 34.2728 12.1928 35.435 12.1928C36.5973 12.1928 37.5397 11.2503 37.5397 10.0894C37.5397 9.44494 37.2418 8.87595 36.7833 8.48899V5.10067H37.7029C39.4247 5.10067 40.8269 6.50292 40.8269 8.22607L40.8256 34.5816Z" fill="#D8DD15"/>
<path d="M30.6201 17.942L20.8934 28.5317L14.0912 23.4957C13.1932 22.8297 11.9285 23.0184 11.2624 23.9164C10.5977 24.8144 10.7851 26.0805 11.6844 26.7465L19.9482 32.8665C20.3096 33.1335 20.7303 33.2643 21.1509 33.2643C21.6997 33.2643 22.2458 33.0418 22.6408 32.6103L33.5986 20.6791C34.3563 19.8566 34.301 18.5771 33.4772 17.822C32.6574 17.067 31.3779 17.1182 30.6201 17.942Z" fill="#D8DD15"/>
</svg>
