<svg width="33" height="45" viewBox="0 0 33 45" fill="none" xmlns="http://www.w3.org/2000/svg">
<path d="M16.4922 0C7.39826 0 0 7.39826 0 16.4922C0 20.6697 2.63226 26.5722 7.82398 34.0356C11.6187 39.4914 15.351 43.7132 15.5082 43.8904L16.4922 45L17.4765 43.8904C17.6334 43.7132 21.3657 39.4914 25.1608 34.0356C30.3521 26.5722 32.9847 20.6697 32.9847 16.4922C32.9847 7.39826 25.5861 0 16.4922 0ZM23.0153 32.512C20.4504 36.202 17.8579 39.3777 16.4922 40.9979C15.1299 39.3822 12.5471 36.2185 9.98383 32.5333C5.17353 25.6181 2.63088 20.071 2.63088 16.4922C2.63088 8.84914 8.84914 2.63088 16.4922 2.63088C24.1356 2.63088 30.3535 8.84914 30.3535 16.4922C30.3535 20.0672 27.816 25.6067 23.0153 32.512Z" fill="#D8DD15"/>
<path d="M16.4921 6.09534C11.1249 6.09534 6.75854 10.4617 6.75854 15.8289C6.75854 21.196 11.1249 25.5628 16.4921 25.5628C21.8596 25.5628 26.226 21.196 26.226 15.8289C26.226 10.4617 21.8596 6.09534 16.4921 6.09534ZM16.4921 22.9319C12.5758 22.9319 9.38943 19.7455 9.38943 15.8289C9.38943 11.9126 12.5758 8.72622 16.4921 8.72622C20.4087 8.72622 23.5951 11.9126 23.5951 15.8289C23.5951 19.7455 20.4087 22.9319 16.4921 22.9319Z" fill="#D8DD15"/>
</svg>
