<svg width="40" height="40" viewBox="0 0 40 40" fill="none" xmlns="http://www.w3.org/2000/svg">
<path d="M28.8285 0.926025H10.7C4.79993 0.926025 0 5.60889 0 11.365V29.0517C0 34.8076 4.79993 39.4904 10.7 39.4904H28.8288C34.7286 39.4904 39.5285 34.8076 39.5285 29.0517V11.365C39.5285 5.60889 34.7286 0.926025 28.8285 0.926025ZM37.2112 29.0517C37.2112 33.5609 33.4508 37.2296 28.8285 37.2296H10.7C6.07772 37.2296 2.31733 33.5609 2.31733 29.0517V11.365C2.31733 6.8555 6.07772 3.18684 10.7 3.18684H28.8288C33.4508 3.18684 37.2112 6.8555 37.2112 11.365V29.0517Z" fill="white"/>
<path d="M19.7624 9.66357C13.8026 9.66357 8.9541 14.3938 8.9541 20.2083C8.9541 26.0227 13.8026 30.7529 19.7624 30.7529C25.7222 30.7529 30.5707 26.0227 30.5707 20.2083C30.5707 14.3938 25.7222 9.66357 19.7624 9.66357ZM19.7624 28.4921C15.0807 28.4921 11.2715 24.7761 11.2715 20.2083C11.2715 15.6407 15.0807 11.9244 19.7624 11.9244C24.4444 11.9244 28.2534 15.6407 28.2534 20.2083C28.2534 24.7761 24.4444 28.4921 19.7624 28.4921Z" fill="white"/>
<path d="M30.8304 5.9187C29.0692 5.9187 27.6367 7.31656 27.6367 9.03453C27.6367 10.7528 29.0692 12.1507 30.8304 12.1507C32.5917 12.1507 34.0245 10.7528 34.0245 9.03453C34.0245 7.31626 32.5917 5.9187 30.8304 5.9187ZM30.8304 9.88958C30.3473 9.88958 29.954 9.50587 29.954 9.03453C29.954 8.56289 30.3473 8.17951 30.8304 8.17951C31.3139 8.17951 31.7071 8.56289 31.7071 9.03453C31.7071 9.50587 31.3139 9.88958 30.8304 9.88958Z" fill="white"/>
</svg>
