<svg width="129" height="52" viewBox="0 0 129 52" fill="none" xmlns="http://www.w3.org/2000/svg">
<circle cx="64" cy="26" r="26" fill="#430B0B"/>
<g style="mix-blend-mode:hard-light">
<path fill-rule="evenodd" clip-rule="evenodd" d="M21.5587 27.4599H8.52729L8.56407 38.2732L1.51988 36.814V12.224L0.901855 10.9879H1.51988V9.60976L2.89809 10.9879H18.3409L22.9987 16.2279H8.48788V22.2199H16.9009L21.5587 27.4599ZM7.48788 23.2199V15.2279H20.7719L17.8919 11.9879H2.51988L2.55588 12.0599L2.51988 12.0239V35.9999L7.55988 37.0439L7.52388 26.4599H19.3319L16.4519 23.2199H7.48788ZM25.9741 17.7092L25.5312 17.5008C24.1119 16.8329 23.0337 15.8011 22.3302 14.4224L22.1906 14.1488L22.2287 13.8439C22.2826 13.413 22.4919 13.0322 22.72 12.7204C22.9559 12.3979 23.269 12.0728 23.635 11.746C24.3194 11.135 25.0205 10.6325 25.692 10.4745L26.0225 10.3967L26.3321 10.5364C27.7562 11.1786 28.8319 12.1897 29.5154 13.5567L29.7152 13.9562L29.551 14.3716C29.024 15.7045 27.9125 16.723 26.4105 17.4872L25.9741 17.7092ZM29.117 18.9992V38.2927L22.617 36.8367V17.5432L29.117 18.9992ZM25.921 11.4479C25.513 11.5439 24.973 11.8919 24.301 12.4919C23.629 13.0919 23.269 13.5839 23.221 13.9679C23.821 15.1439 24.733 16.0199 25.957 16.5959C27.325 15.8999 28.213 15.0359 28.621 14.0039C28.045 12.8519 27.145 11.9999 25.921 11.4479ZM28.117 19.7999V37.0439L23.617 36.0359V18.7919L28.117 19.7999ZM46.8142 22.9679C47.0059 23.3075 47.1758 23.6408 47.3237 23.9679C49.3611 28.4732 47.2473 31.7999 40.9822 33.9479C40.8325 33.9956 40.6684 34.0471 40.4898 34.1024C40.0383 34.2423 39.4945 34.4068 38.8582 34.5959C38.5494 34.6945 38.2828 34.7841 38.0585 34.8647C37.4637 35.0784 37.1662 35.2288 37.1662 35.3159C37.2264 35.4463 37.5567 35.4908 38.1571 35.4494C38.4154 35.4316 38.7236 35.3979 39.0819 35.3483C39.0871 35.3476 39.0924 35.3469 39.0976 35.3461C39.5593 35.2819 40.1033 35.1915 40.7296 35.075C41.1894 34.9894 41.6936 34.8897 42.2422 34.7759C45.5062 34.0799 47.2462 33.8399 47.4622 34.0559C48.4942 35.0639 49.1662 36.1199 49.4782 37.2239C49.7902 38.3279 49.7542 39.3359 49.3702 40.2479C48.9862 41.1599 48.4222 41.9879 47.6782 42.7319C46.9342 43.4999 46.0342 44.0999 44.9782 44.5319C43.9222 44.9639 42.8542 45.1799 41.7742 45.1799C39.9502 45.1799 38.1142 44.6399 36.2662 43.5599C34.4422 42.5039 33.3382 41.5919 32.9542 40.8239C32.9062 40.7519 32.9182 40.6439 32.9902 40.4999C33.0622 40.3799 33.1942 40.2239 33.3862 40.0319L33.9982 39.4199C34.2382 39.2039 34.5502 38.9039 34.9342 38.5199C35.3182 38.1599 35.6782 37.8119 36.0142 37.4759C35.7502 37.0919 34.8142 35.6279 33.2062 33.0839C33.1582 32.9159 33.1222 32.7839 33.0982 32.6879C33.0742 32.5919 33.1342 32.5079 33.2782 32.4359C33.4462 32.3399 33.6142 32.2679 33.7822 32.2199C33.9502 32.1479 34.1902 32.0759 34.5022 32.0039C34.8382 31.9319 35.1502 31.8719 35.4382 31.8239C35.7502 31.7759 36.1222 31.7039 36.5542 31.6079C36.5638 31.6054 36.5733 31.6029 36.5828 31.6004C37.0278 31.4829 37.4383 31.3654 37.8142 31.2479C37.5872 31.1092 37.2508 30.8611 36.8051 30.5036C36.4026 30.1809 35.911 29.769 35.3302 29.2679C34.5862 28.6439 34.0222 27.9719 33.6382 27.2519C33.2542 26.5079 33.0622 25.8119 33.0622 25.1639C33.0622 24.4919 33.1702 23.8199 33.3862 23.1479C33.6022 22.4759 33.9382 21.8759 34.3942 21.3479C34.8502 20.8199 35.3302 20.3279 35.8342 19.8719C36.3622 19.4159 36.9262 19.0799 37.5262 18.8639C38.1502 18.6239 38.7262 18.4679 39.2542 18.3959C39.7822 18.3239 40.2862 18.4079 40.7662 18.6479C42.3982 19.4399 43.5502 20.0399 44.2222 20.4479H50.6302L51.7102 22.9679H46.8142ZM44.4962 19.4479H51.2896L53.2268 23.9679H48.4111C49.2763 26.0991 49.3305 28.1231 48.3634 29.944C47.6864 31.2186 46.5557 32.2976 45.0393 33.2103C45.3396 33.1596 45.6128 33.1172 45.8586 33.0833C46.3079 33.0213 46.6957 32.9833 47.0022 32.9795C47.153 32.9777 47.319 32.9834 47.4782 33.0106C47.5884 33.0294 47.9038 33.0881 48.1621 33.3417C49.2869 34.4406 50.0703 35.642 50.4405 36.952C50.8039 38.2378 50.7775 39.4826 50.2919 40.636C49.8555 41.6723 49.2178 42.6053 48.3909 43.4335C47.5455 44.3045 46.5294 44.9778 45.3569 45.4575C44.1876 45.9358 42.9913 46.1799 41.7742 46.1799C39.7449 46.1799 37.7373 45.5775 35.7637 44.4245C34.8246 43.8808 34.0424 43.358 33.4333 42.8549C32.8504 42.3733 32.3656 41.8609 32.0801 41.311C31.7699 40.7746 32.0035 40.2374 32.0958 40.0527L32.113 40.0184L32.1327 39.9854C32.2696 39.7573 32.4726 39.5313 32.6791 39.3248L32.6836 39.3203L32.6847 39.3192L32.6859 39.3181L32.6904 39.3136L32.6915 39.3124L32.6926 39.3113L32.7028 39.3012L32.7039 39.3L32.7051 39.2989L32.7187 39.2853L32.7198 39.2842L32.7209 39.283L32.7312 39.2728L32.7323 39.2717L32.7334 39.2705L32.738 39.266L32.7391 39.2648L32.7403 39.2637L32.7494 39.2546L32.7505 39.2534L32.7517 39.2523L32.7528 39.2511L32.754 39.25L32.7551 39.2488L32.7562 39.2477L32.7574 39.2466L32.7608 39.2431L32.762 39.242L32.7631 39.2408L32.7688 39.2351L32.77 39.234L32.7711 39.2328L32.7861 39.2179L32.7872 39.2167L32.7884 39.2156L32.793 39.211L32.7941 39.2098L32.7953 39.2087L32.8011 39.2029L32.8022 39.2017L32.8034 39.2006L32.8115 39.1925L32.8126 39.1913L32.8138 39.1902L32.8161 39.1879L32.8172 39.1867L32.8184 39.1855L32.8207 39.1832L32.8219 39.1821L32.8242 39.1797L32.8254 39.1786L32.8358 39.1681L32.837 39.167L32.8381 39.1658L32.8405 39.1635L32.8416 39.1623L32.8428 39.1612L32.8451 39.1588L32.8463 39.1577L32.8475 39.1565L32.8486 39.1553L32.8498 39.1542L32.8521 39.1518L32.8533 39.1507L32.8545 39.1495L32.8568 39.1472L32.858 39.146L32.8591 39.1448L32.8615 39.1425L32.8626 39.1413L32.8638 39.1402L32.865 39.139L32.8661 39.1378L32.8685 39.1355L32.8696 39.1343L32.8708 39.1331L32.8732 39.1308L32.8743 39.1296L32.8755 39.1284L32.8861 39.1179L32.8872 39.1167L32.8896 39.1144L32.8908 39.1132L32.8931 39.1108L32.8943 39.1097L32.8955 39.1085L32.8978 39.1061L32.899 39.105L32.9002 39.1038L32.9084 39.0955L32.9096 39.0943L32.9108 39.0932L32.9167 39.0873L32.9179 39.0861L32.9191 39.0849L32.9238 39.0802L32.925 39.079L32.9262 39.0778L32.9416 39.0624L32.9428 39.0612L32.9439 39.06L32.9499 39.0541L32.9511 39.0529L32.9523 39.0517L32.9558 39.0481L32.957 39.0469L32.9582 39.0457L32.9594 39.0445L32.9606 39.0434L32.9618 39.0422L32.9737 39.0302L32.9749 39.029L32.9761 39.0278L32.9809 39.0231L32.9821 39.0219L32.9833 39.0207L32.9941 39.0099L32.9953 39.0087L32.9965 39.0075L33.0109 38.9931L33.0121 38.9919L33.0133 38.9907L33.0241 38.9798L33.0254 38.9786L33.0266 38.9774L33.0314 38.9726L33.0326 38.9714L33.0338 38.9701L33.0459 38.958L33.0471 38.9568L33.0483 38.9556L33.0495 38.9544L33.0508 38.9532L33.052 38.952L33.0556 38.9484L33.0568 38.9471L33.058 38.9459L33.0641 38.9398L33.0653 38.9386L33.0665 38.9374L33.0824 38.9216L33.0836 38.9204L33.0848 38.9191L33.0897 38.9143L33.0909 38.913L33.0921 38.9118L33.0982 38.9057L33.0995 38.9045L33.1007 38.9033L33.1093 38.8947L33.1105 38.8935L33.1117 38.8922L33.1142 38.8898L33.1154 38.8886L33.1166 38.8873L33.1191 38.8849L33.1203 38.8836L33.1228 38.8812L33.124 38.88L33.1351 38.8689L33.1363 38.8677L33.1375 38.8664L33.14 38.864L33.1412 38.8627L33.1425 38.8615L33.1449 38.859L33.1461 38.8578L33.1474 38.8566L33.1486 38.8553L33.1499 38.8541L33.1511 38.8529L33.1523 38.8516L33.1536 38.8504L33.1548 38.8492L33.1573 38.8467L33.1585 38.8454L33.1597 38.8442L33.161 38.843L33.1622 38.8417L33.1634 38.8405L33.1647 38.8393L33.1659 38.838L33.1672 38.8368L33.1696 38.8343L33.1709 38.8331L33.1721 38.8318L33.1746 38.8294L33.1758 38.8281L33.1771 38.8269L33.187 38.8169L33.1883 38.8157L33.192 38.812L33.1932 38.8107L33.1957 38.8082L33.197 38.807L33.1982 38.8057L33.2007 38.8033L33.2019 38.802L33.2032 38.8008L33.2119 38.792L33.2132 38.7908L33.2144 38.7895L33.2194 38.7845L33.2207 38.7833L33.2219 38.782L33.2282 38.7758L33.2294 38.7745L33.2307 38.7733L33.2558 38.7482L33.257 38.7469L33.2583 38.7457L33.2621 38.7419L33.2633 38.7406L33.2646 38.7394L33.2659 38.7381L33.2671 38.7368L33.2684 38.7356L33.281 38.723L33.2823 38.7217L33.2835 38.7204L33.2886 38.7154L33.2898 38.7141L33.2911 38.7128L33.3097 38.6942L33.3293 38.6766C33.5504 38.4776 33.8484 38.1915 34.2271 37.8128L34.2385 37.8014L34.2503 37.7904C34.4138 37.6371 34.5728 37.4862 34.727 37.3377C34.2479 36.5958 33.4569 35.3522 32.3609 33.6182L32.2842 33.4968L32.2447 33.3587C32.1956 33.1867 32.1561 33.0424 32.1281 32.9305C32.0416 32.5845 32.1196 32.2403 32.3115 31.9717C32.4647 31.7572 32.6608 31.63 32.8033 31.5557C33.009 31.44 33.2237 31.3453 33.4472 31.2763C33.6846 31.1807 33.9695 31.1006 34.2774 31.0296L34.285 31.0278L34.2927 31.0261C34.6411 30.9515 34.9684 30.8885 35.2738 30.8376L35.2862 30.8355C35.3754 30.8218 35.4712 30.8058 35.5736 30.7873C35.2995 30.5585 35.002 30.3054 34.682 30.0295C33.8608 29.3397 33.2094 28.5729 32.7559 27.7225L32.7495 27.7106C32.313 26.8649 32.0622 26.0113 32.0622 25.1639C32.0622 24.3829 32.188 23.6078 32.4342 22.8419C32.6908 22.0437 33.0926 21.3251 33.6374 20.6943C34.1195 20.1361 34.6281 19.6146 35.1633 19.1304L35.1719 19.1227L35.1806 19.1151C35.7897 18.5891 36.4553 18.1882 37.1771 17.9268C37.8523 17.6678 38.501 17.4894 39.1191 17.4051C39.8459 17.306 40.5507 17.4235 41.2077 17.7507C42.6646 18.4578 43.7677 19.0254 44.4962 19.4479ZM36.9862 38.8439L37.1662 39.0239C37.2179 39.0584 37.271 39.091 37.3255 39.1215C38.1053 39.5594 39.1682 39.5989 40.5142 39.2399C41.9542 38.8559 43.3702 38.3999 44.7622 37.8719C45.2053 37.7142 45.579 37.5894 45.8835 37.4975C45.8872 37.4964 45.891 37.4953 45.8947 37.4941C46.0444 37.4491 46.1771 37.4121 46.2928 37.3832C46.3142 37.3778 46.335 37.3727 46.3552 37.3679C46.7092 37.2839 46.8862 37.2839 46.8862 37.3679C46.8943 37.6845 46.8283 37.9956 46.6882 38.3011C46.6853 38.3075 46.6823 38.3139 46.6793 38.3203C46.4021 38.9114 45.847 39.482 45.0142 40.0319C43.7662 40.8959 42.2782 41.4359 40.5502 41.6519C39.1652 41.8275 37.7644 41.678 36.3477 41.2036C36.0214 41.0943 35.6942 40.9677 35.3662 40.8239L36.9862 38.8439ZM37.194 40.1691L37.0299 40.3697C38.1887 40.7082 39.3178 40.8002 40.4245 40.6599L40.4262 40.6597C42.018 40.4607 43.3479 39.9693 44.445 39.2098L44.454 39.2035L44.4632 39.1975C44.6217 39.0928 44.7636 38.9909 44.8905 38.8921C43.5396 39.3962 42.1667 39.8342 40.7719 40.2062C39.465 40.5547 38.2295 40.6061 37.194 40.1691ZM43.171 25.5373C43.3759 24.547 43.112 23.6365 42.2069 22.7264C41.9031 22.517 41.6306 22.4573 41.358 22.4863C41.043 22.5198 40.6242 22.6843 40.0931 23.1023C39.0461 23.9452 38.4418 24.9471 38.2233 26.1282C38.0434 27.2194 38.3189 28.0607 39.05 28.7693C39.335 28.9482 39.6098 29.0069 39.9044 28.9756C40.2431 28.9395 40.6805 28.7752 41.2262 28.3842C42.3476 27.5739 42.9598 26.631 43.1683 25.5505L43.171 25.5373ZM41.8102 29.1959C40.5382 30.1079 39.4102 30.2279 38.4262 29.5559C37.3942 28.5959 36.9982 27.3959 37.2382 25.9559C37.5022 24.5159 38.2462 23.3039 39.4702 22.3199C40.7182 21.3359 41.8462 21.2159 42.8542 21.9599C44.0062 23.0879 44.4382 24.3479 44.1502 25.7399C43.8862 27.1079 43.1062 28.2599 41.8102 29.1959ZM60.0101 10.6472V19.2789C61.6851 18.011 63.3153 17.3213 64.8746 17.4343C65.5612 17.4794 66.2875 17.8858 66.9713 18.3742C67.7009 18.8954 68.5564 19.641 69.5314 20.5913C70.5149 21.5264 71.2909 22.3344 71.8437 23.0093C72.1205 23.3473 72.3541 23.6673 72.532 23.9656C72.703 24.2524 72.858 24.5772 72.9185 24.9162L72.9206 24.928L72.9224 24.9399C72.9576 25.1686 72.9792 25.6016 72.9966 26.1587C73.0149 26.7441 73.03 27.5374 73.042 28.5359C73.0661 30.5339 73.0781 33.3707 73.0781 37.0439V38.2949L66.6 36.8321L66.6142 36.0185C66.6862 31.9055 66.7069 28.7709 66.6772 26.6087C66.6622 25.5259 66.6348 24.6997 66.5961 24.1215C66.5766 23.831 66.5553 23.6188 66.5341 23.4751C66.5279 23.4329 66.5225 23.4021 66.5183 23.3809C66.3994 23.1863 66.2955 23.1317 66.2271 23.1097C66.1306 23.0785 65.9218 23.056 65.5314 23.1921L65.5183 23.1967C64.6601 23.4828 63.7109 24.0318 62.6709 24.8909L62.6692 24.8924C61.7279 25.6663 60.8414 26.538 60.0101 27.5091V38.2927L53.5101 36.8367V9.19116L60.0101 10.6472ZM59.0101 27.1439C59.9461 26.0159 60.9541 25.0079 62.0341 24.1199C63.1381 23.2079 64.1941 22.5839 65.2021 22.2479C66.2341 21.8879 66.9781 22.1279 67.4341 22.9679C67.6981 23.4479 67.7581 27.8039 67.6141 36.0359L72.0781 37.0439C72.0781 36.6946 72.0779 36.3528 72.0777 36.0187C72.0734 29.3285 72.0255 25.6863 71.9341 25.0919C71.8141 24.4199 70.7821 23.1599 68.8381 21.3119C66.9181 19.4399 65.5741 18.4799 64.8061 18.4319C63.4229 18.3302 61.8242 19.0388 60.0101 20.5576C59.6837 20.8308 59.3504 21.1303 59.0101 21.4559V11.4479L54.5101 10.4399V36.0359L59.0101 37.0439V27.1439ZM74.5031 22.3119L72.566 17.7919H76.0345V13.6507L82.4625 15.114V17.7919H86.5139L88.4511 22.3119H82.4625V27.0719C82.4625 27.726 82.4505 28.38 82.4265 29.034C82.4272 29.6307 82.4603 30.1883 82.5243 30.7079C82.6158 31.2541 82.7175 31.7488 82.8287 32.1934C82.9142 32.5354 83.0428 32.746 83.1776 32.8808C83.3302 33.0334 83.511 33.1358 83.7436 33.1905C83.8887 33.2247 84.1923 33.2256 84.7252 33.0425C85.281 32.8355 85.9427 32.4923 86.7153 31.9924L87.4432 31.5214L89.6259 34.0275L88.9051 34.6862C87.4954 35.9743 86.2632 36.9251 85.2215 37.4876C84.0899 38.123 82.7189 37.9056 81.3565 37.315C79.9914 36.7369 78.7812 35.9208 77.7314 34.871L77.7226 34.8622L77.714 34.8532C76.7401 33.8294 76.0345 32.7326 76.0345 31.6079V22.3119H74.5031ZM77.0345 21.3119V31.6079C77.0345 32.3279 77.5025 33.1799 78.4385 34.1639C79.3985 35.1239 80.5025 35.8679 81.7505 36.3959C83.0225 36.9479 84.0185 37.0199 84.7385 36.6119C85.6745 36.1079 86.8385 35.2199 88.2305 33.9479L87.2585 32.8319C86.4425 33.3599 85.7105 33.7439 85.0625 33.9839C84.4385 34.1999 83.9225 34.2599 83.5145 34.1639C83.1065 34.0679 82.7585 33.8759 82.4705 33.5879C82.1825 33.2999 81.9785 32.9159 81.8585 32.4359C81.7385 31.9559 81.6305 31.4279 81.5345 30.8519C81.4625 30.2759 81.4265 29.6639 81.4265 29.0159C81.4505 28.3679 81.4625 27.7199 81.4625 27.0719V21.3119H86.9345L85.8545 18.7919H81.4625V15.9119L77.0345 14.9039V18.7919H74.0825L75.1625 21.3119H77.0345ZM98.3772 36.5399C99.7932 37.0679 101.221 37.0679 102.661 36.5399C103.908 36.1036 105.397 35.2805 107.13 34.0707C107.398 33.8831 107.673 33.6862 107.953 33.4799L107.233 32.7599L105.865 31.2479L105.145 30.5279C104.305 31.2239 103.573 31.7879 102.949 32.2199C102.325 32.6279 101.545 33.0479 100.609 33.4799C99.6972 33.8879 98.8212 33.9959 97.9812 33.8039C97.4249 33.6768 96.9054 33.4128 96.4228 33.0119C96.1767 32.8075 95.9401 32.5675 95.7132 32.2919L98.5212 30.2399C100.417 28.8719 102.301 27.4919 104.173 26.0999C105.096 25.4109 105.797 24.881 106.276 24.5102C106.639 24.2293 106.875 24.0398 106.984 23.9415C107.027 23.9029 107.05 23.8784 107.053 23.8679C106.818 23.6463 106.571 23.4238 106.313 23.2005C106.313 23.2004 106.313 23.2006 106.313 23.2005C105.201 22.2389 103.876 21.2612 102.337 20.2679C100.465 19.0199 99.0492 18.3959 98.0892 18.3959C96.6252 18.3959 95.2692 18.8999 94.0212 19.9079C92.7972 20.8919 91.8852 22.0919 91.2852 23.5079C90.7092 24.9239 90.5052 26.4599 90.6732 28.1159C90.8412 29.7479 91.4652 31.1639 92.5452 32.3639C94.3692 34.3559 96.3132 35.7479 98.3772 36.5399ZM93.3943 19.1288C92.0446 20.214 91.0302 21.5466 90.3644 23.1178L90.3616 23.1245L90.3589 23.1311C89.716 24.7116 89.4953 26.4132 89.6783 28.2169L89.6784 28.2183C89.8678 30.0574 90.5777 31.6727 91.8019 33.0329L91.8077 33.0393C93.7135 35.1207 95.7816 36.6151 98.0189 37.4736L98.0278 37.4769C99.6688 38.0888 101.34 38.0876 102.999 37.4813C104.574 36.9287 106.428 35.843 108.546 34.2855L109.483 33.5958L107.958 32.0704L106.59 30.5585L105.208 29.1769L104.507 29.7579C103.686 30.4385 102.981 30.9807 102.391 31.3901C101.823 31.7605 101.095 32.1543 100.196 32.5694C99.4511 32.9015 98.7985 32.965 98.204 32.8291C97.8889 32.7571 97.5749 32.619 97.2632 32.3978L99.1063 31.0509C99.107 31.0504 99.1078 31.0498 99.1085 31.0493C101.008 29.679 102.895 28.2967 104.77 26.9024L104.772 26.9012C105.721 26.1923 106.441 25.648 106.928 25.2704C107.17 25.0825 107.362 24.9304 107.498 24.8177C107.564 24.7626 107.628 24.708 107.681 24.6586C107.707 24.6352 107.743 24.6005 107.78 24.5599C107.798 24.5399 107.827 24.5063 107.858 24.4629C107.879 24.4346 107.952 24.3329 108.002 24.1842L108.204 23.5782L107.739 23.1402C106.437 21.913 104.815 20.6778 102.886 19.4318C101.924 18.7908 101.051 18.2912 100.274 17.9489C99.508 17.6111 98.7673 17.3959 98.0892 17.3959C96.3748 17.3959 94.8017 17.9926 93.3943 19.1288ZM96.741 24.7678L96.7371 24.7751C96.4255 25.3521 96.1925 26.0337 96.0497 26.8299L101.141 23.3538C100.189 22.9449 99.4405 22.869 98.8603 23.0049C97.9765 23.2176 97.2725 23.7638 96.741 24.7678ZM98.6292 22.0319C99.62 21.7988 100.776 22.0217 102.097 22.7007C102.408 22.8605 102.728 23.0456 103.057 23.2559L94.8852 28.8359C94.8852 28.4022 94.9035 27.986 94.9402 27.5875C95.0576 26.3104 95.3633 25.2146 95.8572 24.2999C96.5052 23.0759 97.4292 22.3199 98.6292 22.0319ZM116.648 20.9998C116.324 21.4348 115.991 21.9228 115.648 22.4639V19.7999L111.148 18.7919V36.0359L115.648 37.0439V26.1719C116.392 24.9719 117.088 24.1079 117.736 23.5799C118.384 23.0279 119.248 22.8119 120.328 22.9319C121.223 23.0098 122.246 23.4196 123.394 24.1612C123.661 24.3336 123.935 24.5238 124.216 24.7319L126.699 21.1322C126.699 21.1322 126.699 21.1323 126.699 21.1322C126.434 20.9532 126.152 20.7756 125.852 20.6002C125.066 20.1409 124.16 19.6941 123.136 19.2599C121.72 18.6359 120.712 18.3239 120.112 18.3239C119.128 18.3239 117.973 19.2159 116.648 20.9998ZM123.532 18.3419C124.987 18.9586 126.233 19.6106 127.259 20.3031L128.096 20.8683L124.451 26.1517L123.62 25.535C122.191 24.4753 121.075 24.0007 120.241 23.9282L120.229 23.9271L120.217 23.9258C119.331 23.8274 118.768 24.0145 118.384 24.3412L118.376 24.3483L118.367 24.3552C117.881 24.7513 117.305 25.4331 116.648 26.4605V38.2927L110.148 36.8367V17.5432L116.648 18.9992V19.4032C116.9 19.1146 117.15 18.8551 117.398 18.6257C118.212 17.87 119.126 17.3239 120.112 17.3239C120.56 17.3239 121.074 17.4359 121.613 17.6027C122.165 17.7734 122.806 18.0223 123.532 18.3419Z" fill="#FFFDFD"/>
</g>
<circle cx="26" cy="14" r="4" fill="#430B0B"/>
<circle cx="26" cy="14" r="4" fill="#C0A307"/>
</svg>
