<svg width="40" height="40" viewBox="0 0 40 40" fill="none" xmlns="http://www.w3.org/2000/svg">
<path d="M8.10582 26.5893C12.0661 31.3054 16.8333 35.0187 22.2745 37.6461C24.3462 38.6241 27.1167 39.7845 30.2034 39.9834C30.3947 39.9917 30.5778 40 30.7691 40C32.8408 40 34.5047 39.2872 35.8609 37.8201C35.8692 37.8119 35.8858 37.7953 35.8941 37.7787C36.3767 37.1985 36.9258 36.6763 37.4999 36.121C37.8909 35.748 38.2903 35.3585 38.673 34.9606C40.4451 33.1206 40.4451 30.7833 38.6563 29.0012L33.6561 24.0199C32.8075 23.1413 31.7925 22.6772 30.7275 22.6772C29.6626 22.6772 28.6392 23.1413 27.7656 24.0116L24.7871 26.9789C24.5126 26.8214 24.2297 26.6805 23.9635 26.5479C23.6307 26.3821 23.3228 26.2246 23.0483 26.0506C20.336 24.3349 17.8733 22.097 15.5188 19.2209C14.3291 17.7207 13.5304 16.4608 12.9729 15.1761C13.755 14.4716 14.4872 13.7339 15.1943 13.0128C15.4439 12.7559 15.7018 12.499 15.9598 12.242C16.8583 11.3469 17.3409 10.3108 17.3409 9.25818C17.3409 8.20555 16.8666 7.1695 15.9598 6.27435L13.4804 3.80439C13.1893 3.5143 12.9147 3.23249 12.6318 2.9424C12.0827 2.37878 11.5086 1.79859 10.9429 1.27642C10.0859 0.439287 9.07924 0 8.0143 0C6.95768 0 5.94266 0.439287 5.05243 1.28471L1.94081 4.38458C0.809305 5.51181 0.168676 6.8794 0.0355583 8.46249C-0.122519 10.4434 0.243555 12.5487 1.19202 15.0932C2.64799 19.0303 4.84444 22.6855 8.10582 26.5893ZM2.0656 8.63655C2.16544 7.53419 2.58975 6.61417 3.38846 5.81848L6.48345 2.73518C6.966 2.27103 7.49847 2.03067 8.0143 2.03067C8.52181 2.03067 9.03764 2.27103 9.51188 2.75176C10.0693 3.26564 10.5935 3.80439 11.1592 4.3763C11.4421 4.66639 11.7333 4.95649 12.0245 5.25487L14.5038 7.72482C15.0196 8.23871 15.2859 8.76088 15.2859 9.27476C15.2859 9.78864 15.0196 10.3108 14.5038 10.8247C14.2459 11.0816 13.988 11.3469 13.73 11.6038C12.9563 12.3829 12.2325 13.1206 11.4338 13.8251C11.4171 13.8417 11.4088 13.85 11.3922 13.8666C10.7016 14.5545 10.8098 15.2093 10.9762 15.7066C10.9845 15.7315 10.9928 15.748 11.0011 15.7729C11.6418 17.3063 12.532 18.765 13.9214 20.5056C16.4174 23.5723 19.0464 25.9511 21.9417 27.7828C22.2995 28.0149 22.6822 28.1973 23.04 28.3796C23.3728 28.5454 23.6806 28.7029 23.9551 28.8769C23.9884 28.8935 24.0134 28.9101 24.0467 28.9266C24.3212 29.0676 24.5875 29.1339 24.8537 29.1339C25.5193 29.1339 25.9519 28.7111 26.0933 28.5702L29.205 25.4704C29.6875 24.9896 30.2117 24.7327 30.7275 24.7327C31.3598 24.7327 31.8757 25.1223 32.2001 25.4704L37.217 30.46C38.2154 31.4546 38.2071 32.5321 37.192 33.5848C36.8426 33.9577 36.4765 34.3141 36.0855 34.6871C35.5031 35.2507 34.8958 35.8309 34.3466 36.4857C33.3899 37.5135 32.25 37.9942 30.7774 37.9942C30.636 37.9942 30.4862 37.9859 30.3448 37.9776C27.6159 37.8036 25.0783 36.7426 23.1731 35.8392C17.9981 33.3444 13.4555 29.8052 9.68659 25.3129C6.58329 21.5914 4.495 18.1268 3.11391 14.4136C2.25696 12.1343 1.93249 10.3025 2.0656 8.63655Z" fill="white"/>
</svg>
