<svg width="45" height="45" viewBox="0 0 45 45" fill="none" xmlns="http://www.w3.org/2000/svg">
<path d="M11.5387 14.1903C15.4414 14.1903 18.6167 11.0073 18.6167 7.09474C18.6167 3.18267 15.4414 0 11.5387 0C7.63572 0 4.46045 3.18267 4.46045 7.09474C4.46029 11.0073 7.63556 14.1903 11.5387 14.1903ZM11.5387 2.36255C14.1389 2.36255 16.2542 4.48554 16.2542 7.09474C16.2542 9.70442 14.1387 11.8277 11.5387 11.8277C8.93859 11.8277 6.823 9.70442 6.823 7.09474C6.82284 4.48554 8.93843 2.36255 11.5387 2.36255Z" fill="#D8DD15"/>
<path d="M33.4615 14.1903C37.3643 14.1903 40.5396 11.0073 40.5396 7.09474C40.5397 3.18267 37.3643 0 33.4615 0C29.5586 0 26.3833 3.18267 26.3833 7.09474C26.3833 11.0073 29.5586 14.1903 33.4615 14.1903ZM33.4615 2.36255C36.0617 2.36255 38.177 4.48554 38.177 7.09474C38.177 9.70442 36.0616 11.8277 33.4615 11.8277C30.8613 11.8277 28.7459 9.70442 28.7459 7.09474C28.7459 4.48554 30.8613 2.36255 33.4615 2.36255Z" fill="#D8DD15"/>
<path d="M44.7289 23.329L43.5246 17.29C43.1486 15.4061 41.3521 13.9303 39.4347 13.9303H36.8309C36.5169 13.9303 36.216 14.0552 35.9944 14.2774L33.4614 16.8178L30.9284 14.2774C30.707 14.0552 30.406 13.9303 30.0919 13.9303H27.4878C26.7735 13.9303 26.077 14.1368 25.4638 14.4915C24.4596 14.0887 23.3657 13.8647 22.2197 13.8647C21.1977 13.8647 20.2166 14.0429 19.3039 14.3667C18.7496 14.0887 18.1377 13.9303 17.5118 13.9303H14.908C14.594 13.9303 14.2931 14.0552 14.0715 14.2774L11.5386 16.8178L9.00567 14.2774C8.78422 14.0552 8.48323 13.9303 8.16917 13.9303H5.56501C3.6474 13.9303 1.85108 15.4061 1.47527 17.2901L0.270846 23.329C0.201702 23.676 0.291636 24.0355 0.516079 24.3093C0.740521 24.5827 1.07569 24.7413 1.42944 24.7413H13.71C14.6489 28.5784 18.1072 31.4344 22.2199 31.4344C26.3326 31.4344 29.7909 28.5784 30.7298 24.7413H43.5703C43.924 24.7413 44.2592 24.5827 44.4836 24.3093C44.7081 24.0357 44.7982 23.676 44.7289 23.329ZM3.79231 17.7522C3.94729 16.9748 4.7756 16.2928 5.56501 16.2928H7.67886L10.702 19.3249C10.9236 19.5472 11.2246 19.6721 11.5385 19.6721C11.8524 19.6721 12.1534 19.5472 12.375 19.3249L15.3983 16.2928H16.1811C14.5655 17.8357 13.5364 19.988 13.4638 22.3788H2.86965L3.79231 17.7522ZM22.2199 29.0719C18.6907 29.0719 15.8194 26.1907 15.8194 22.6494C15.8194 19.1084 18.6906 16.2275 22.2199 16.2275C25.7491 16.2275 28.6204 19.1084 28.6204 22.6494C28.6204 26.1907 25.7491 29.0719 22.2199 29.0719ZM30.976 22.3788C30.9034 19.988 29.8742 17.8357 28.2587 16.2928H29.6016L32.6247 19.3249C32.8463 19.5472 33.1473 19.6721 33.4614 19.6721C33.7753 19.6721 34.0763 19.5472 34.2979 19.3249L37.3212 16.2928H39.4347C40.2241 16.2928 41.0524 16.9748 41.2076 17.7522L42.1302 22.3788H30.976Z" fill="#D8DD15"/>
<path d="M34.827 35.8234C34.3741 33.5535 32.21 31.7753 29.9 31.7753H26.552C26.2381 31.7753 25.9371 31.9002 25.7155 32.1224L22.2198 35.6283L18.7242 32.1224C18.5028 31.9002 18.2018 31.7753 17.8877 31.7753H14.5395C12.2296 31.7753 10.0653 33.5535 9.61232 35.8236L8.06406 43.5877C7.99491 43.9347 8.08485 44.2943 8.30929 44.568C8.53373 44.8414 8.8689 45 9.22265 45H35.2172C35.5709 45 35.9061 44.8414 36.1305 44.568C36.355 44.2944 36.4449 43.9347 36.3758 43.5877L34.827 35.8234ZM10.6627 42.6375L11.9293 36.2859C12.1576 35.1414 13.3773 34.1378 14.5395 34.1378H17.3974L21.3835 38.1354C21.6049 38.3577 21.9059 38.4826 22.22 38.4826C22.5339 38.4826 22.8349 38.3577 23.0563 38.1354L27.0424 34.1378H29.9002C31.0624 34.1378 32.2819 35.1414 32.5102 36.2857L33.7771 42.6375H10.6627Z" fill="#D8DD15"/>
</svg>
