<svg width="270" height="42" viewBox="0 0 270 42" fill="none" xmlns="http://www.w3.org/2000/svg">
<path d="M21 2.1319L26.5601 12.6006L26.7892 13.0319L27.2701 13.1164L38.9446 15.1694L30.7065 23.6925L30.3671 24.0436L30.4353 24.5271L32.0904 36.2646L21.4388 31.0634L21 30.8491L20.5612 31.0634L9.90961 36.2646L11.5647 24.5271L11.6329 24.0436L11.2935 23.6925L3.05537 15.1694L14.7299 13.1164L15.2108 13.0319L15.4399 12.6006L21 2.1319Z" stroke="#D8DD15" stroke-width="2"/>
<path d="M78 2.1319L83.5601 12.6006L83.7892 13.0319L84.2701 13.1164L95.9446 15.1694L87.7065 23.6925L87.3671 24.0436L87.4353 24.5271L89.0904 36.2646L78.4388 31.0634L78 30.8491L77.5612 31.0634L66.9096 36.2646L68.5647 24.5271L68.6329 24.0436L68.2935 23.6925L60.0554 15.1694L71.7299 13.1164L72.2108 13.0319L72.4399 12.6006L78 2.1319Z" stroke="#D8DD15" stroke-width="2"/>
<path d="M135 2.1319L140.56 12.6006L140.789 13.0319L141.27 13.1164L152.945 15.1694L144.706 23.6925L144.367 24.0436L144.435 24.5271L146.09 36.2646L135.439 31.0634L135 30.8491L134.561 31.0634L123.91 36.2646L125.565 24.5271L125.633 24.0436L125.294 23.6925L117.055 15.1694L128.73 13.1164L129.211 13.0319L129.44 12.6006L135 2.1319Z" stroke="#D8DD15" stroke-width="2"/>
<path d="M192 2.1319L197.56 12.6006L197.789 13.0319L198.27 13.1164L209.945 15.1694L201.706 23.6925L201.367 24.0436L201.435 24.5271L203.09 36.2646L192.439 31.0634L192 30.8491L191.561 31.0634L180.91 36.2646L182.565 24.5271L182.633 24.0436L182.294 23.6925L174.055 15.1694L185.73 13.1164L186.211 13.0319L186.44 12.6006L192 2.1319Z" stroke="#D8DD15" stroke-width="2"/>
<path d="M249 2.1319L254.56 12.6006L254.789 13.0319L255.27 13.1164L266.945 15.1694L258.706 23.6925L258.367 24.0436L258.435 24.5271L260.09 36.2646L249.439 31.0634L249 30.8491L248.561 31.0634L237.91 36.2646L239.565 24.5271L239.633 24.0436L239.294 23.6925L231.055 15.1694L242.73 13.1164L243.211 13.0319L243.44 12.6006L249 2.1319Z" stroke="#D8DD15" stroke-width="2"/>
</svg>
