<svg width="45" height="45" viewBox="0 0 45 45" fill="none" xmlns="http://www.w3.org/2000/svg">
<path d="M20.625 15L17.6668 13.5209C17.1461 13.2605 16.5719 13.125 15.9897 13.125H14.6783C13.6837 13.125 12.7299 13.5201 12.0266 14.2234L10.4734 15.7766C9.77008 16.4799 9.375 17.4337 9.375 18.4283V27.993C9.375 29.2468 10.0016 30.4178 11.0449 31.1132L18.2952 35.9468C19.677 36.8681 21.5002 36.7706 22.776 35.7075L31.875 28.125" stroke="#D8DD15" stroke-width="2" stroke-linecap="round"/>
<path d="M27.1029 24.2141C25.9715 22.6991 23.8893 22.2636 22.2455 23.1977L18.7668 25.1749C17.6493 25.8099 16.2452 25.6202 15.3362 24.7114C14.1488 23.5238 14.2373 21.573 15.5274 20.4981L23.3319 13.9942C24.0059 13.4326 24.8553 13.125 25.7326 13.125H27.2397C27.8219 13.125 28.3961 13.2605 28.9167 13.5209L33.5519 15.8385C34.8224 16.4738 35.6249 17.7722 35.6249 19.1927V24.3367C35.6249 27.9444 31.0291 29.4713 28.8704 26.5808L27.1029 24.2141Z" stroke="#D8DD15" stroke-width="2" stroke-linecap="square"/>
<path d="M1.875 31.875V15" stroke="#D8DD15" stroke-width="2" stroke-linecap="square"/>
<path d="M1.875 31.875V15" stroke="#D8DD15" stroke-width="2" stroke-linecap="square"/>
<path d="M43.125 31.875V15" stroke="#D8DD15" stroke-width="2" stroke-linecap="square"/>
</svg>
